#!OML:ASF I:\Actors\actors\Patient Classification 2\Patient 1\Session 1\actor1.ASF
:FULLY-SPECIFIED
:DEGREES
315
root -0.633756 18.0307 5.98787 2.49824 -32.0245 -2.6315
lowerback 2.12368 -7.93509 -2.92556
upperback -3.67678 -10.6531 2.95727
thorax -3.8981 -5.18264 5.15673
lowerneck -9.49173 3.90537 12.2346
upperneck 31.5728 0.495568 5.13261
head 12.214 2.04881 -0.130986
rclavicle 1.36714e-013 -1.19271e-015
rhumerus 37.7525 43.6955 3.09748
rradius 140.143
rwrist -91.1567
rhand -0.728123 -56.8331
rfingers 7.12502
rthumb 24.8928 -85.2322
lclavicle 1.36714e-013 -1.19271e-015
lhumerus 21.7043 29.6564 86.6559
lradius 65.7454
lwrist 81.9246
lhand -40.1455 -2.07235
lfingers 7.12502
lthumb -13.108 27.4957
rfemur 10.2594 15.7882 14.7176
rtibia -19.7317
rfoot 4.31563 -4.61617
rtoes 1.24265
lfemur 16.192 19.1281 -11.8031
ltibia 7.63333e-014
lfoot -19.2321 14.4873
ltoes 5.52403
316
root -0.629835 18.0338 5.97544 2.60058 -32.257 -2.62698
lowerback 2.15143 -7.83413 -2.92273
upperback -3.53539 -10.5198 2.84932
thorax -3.79993 -5.12191 5.03307
lowerneck -9.51009 3.95964 12.6459
upperneck 31.6201 0.490215 5.05537
head 12.2523 2.08611 -0.226543
rclavicle 8.90307e-014 -1.74931e-014
rhumerus 37.591 43.6388 2.84076
rradius 139.942
rwrist -90.9603
rhand -1.07795 -56.7487
rfingers 7.12502
rthumb 24.5575 -85.1938
lclavicle 8.90307e-014 -1.74931e-014
lhumerus 22.0096 29.6008 86.7425
lradius 65.7218
lwrist 81.7762
lhand -39.9314 -1.53884
lfingers 7.12502
lthumb -12.9016 28.0424
rfemur 10.0518 15.862 14.665
rtibia -19.7499
rfoot 4.47004 -4.56483
rtoes 1.30441
lfemur 16.0767 19.3803 -11.8213
ltibia -1.27222e-014
lfoot -19.1573 14.4754
ltoes 5.36578
317
root -0.625969 18.0373 5.96311 2.69032 -32.4919 -2.60021
lowerback 2.23085 -7.74243 -3.00935
upperback -3.44551 -10.4026 2.82118
thorax -3.75249 -5.06352 5.05108
lowerneck -9.41016 3.99247 12.8626
upperneck 31.5822 0.536448 4.96223
head 12.2246 2.11638 -0.293228
rclavicle -7.25813e-014 3.4191e-014
rhumerus 37.6039 43.6155 2.82392
rradius 139.76
rwrist -90.8498
rhand -1.18746 -56.829
rfingers 7.12502
rthumb 24.4525 -85.2883
lclavicle -7.25813e-014 3.4191e-014
lhumerus 22.2624 29.5973 86.8066
lradius 65.5949
lwrist 81.7389
lhand -39.7227 -1.46589
lfingers 7.12502
lthumb -12.7004 28.1279
rfemur 9.84442 15.9968 14.5979
rtibia -19.777
rfoot 4.59189 -4.58224
rtoes 1.11831
lfemur 15.9662 19.6355 -11.8649
ltibia 3.49861e-014
lfoot -19.0479 14.4484
ltoes 5.41215
318
root -0.621836 18.0409 5.95101 2.78639 -32.689 -2.5697
lowerback 2.30636 -7.69422 -3.07924
upperback -3.36913 -10.3432 2.78352
thorax -3.71593 -5.03412 5.05254
lowerneck -9.29417 4.026 13.0549
upperneck 31.5388 0.59557 4.85959
head 12.1908 2.14749 -0.358223
rclavicle 7.03449e-014 -1.23246e-014
rhumerus 37.7037 43.6293 2.77267
rradius 139.642
rwrist -90.8376
rhand -1.20408 -56.9537
rfingers 7.12502
rthumb 24.4366 -85.4151
lclavicle 7.03449e-014 -1.23246e-014
lhumerus 22.5192 29.6945 86.8264
lradius 65.4285
lwrist 81.642
lhand -40.8079 -1.99522
lfingers 7.12502
lthumb -13.7465 27.5307
rfemur 9.64433 16.2146 14.5298
rtibia -19.8295
rfoot 4.64828 -4.73848
rtoes 1.19401
lfemur 15.8424 19.8566 -11.9237
ltibia 3.18055e-015
lfoot -18.9494 14.4002
ltoes 5.62215
319
root -0.617795 18.0451 5.93792 2.83194 -32.8204 -2.45937
lowerback 2.39109 -7.66949 -3.1846
upperback -3.27533 -10.3181 2.69342
thorax -3.66643 -5.02188 5.01979
lowerneck -9.28955 4.06749 13.1991
upperneck 31.5175 0.617695 4.87349
head 12.1884 2.17332 -0.373615
rclavicle -5.04416e-014 -1.94809e-014
rhumerus 37.7376 43.6626 2.58621
rradius 139.562
rwrist -90.8377
rhand -1.25422 -57.0746
rfingers 7.12502
rthumb 24.3885 -85.5425
lclavicle -5.04416e-014 -1.94809e-014
lhumerus 22.8068 29.7767 86.8195
lradius 65.2323
lwrist 81.5415
lhand -40.6835 -1.67723
lfingers 7.12502
lthumb -13.6266 27.8568
rfemur 9.48275 16.475 14.3874
rtibia -19.8884
rfoot 4.65789 -4.9428
rtoes 1.32663
lfemur 15.6954 20.0112 -12.0593
ltibia 4.77083e-015
lfoot -18.8991 14.3624
ltoes 5.71057
320
root -0.614414 18.0492 5.92605 2.84376 -32.9254 -2.32719
lowerback 2.47933 -7.65048 -3.29824
upperback -3.16846 -10.3007 2.61753
thorax -3.60049 -5.01391 5.00518
lowerneck -9.34572 4.12488 13.1604
upperneck 31.4668 0.65176 5.03521
head 12.1825 2.20129 -0.300874
rclavicle 1.72148e-013 2.98177e-015
rhumerus 37.823 43.6702 2.4353
rradius 139.462
rwrist -90.8677
rhand -1.21867 -57.1693
rfingers 7.12502
rthumb 24.4226 -85.6327
lclavicle 1.72148e-013 2.98177e-015
lhumerus 23.0979 29.8845 86.8525
lradius 64.8085
lwrist 80.8272
lhand -39.906 -1.18914
lfingers 7.12502
lthumb -12.8772 28.3936
rfemur 9.36181 16.7367 14.2287
rtibia -19.9429
rfoot 4.64663 -5.12185
rtoes 1.15204
lfemur 15.5623 20.1372 -12.2111
ltibia -3.18055e-015
lfoot -18.8561 14.3474
ltoes 5.63094
321
root -0.610138 18.052 5.91706 2.90633 -33.0241 -2.2797
lowerback 2.54893 -7.62136 -3.30898
upperback -3.06547 -10.2637 2.5745
thorax -3.54175 -4.99864 4.96702
lowerneck -9.48368 4.18584 13.183
upperneck 31.4632 0.698245 5.0776
head 12.2134 2.2323 -0.279415
rclavicle 1.21582e-013 3.18055e-015
rhumerus 38.0448 43.6683 2.31006
rradius 139.403
rwrist -90.7967
rhand -1.20952 -57.3114
rfingers 7.12502
rthumb 24.4314 -85.7736
lclavicle 1.21582e-013 3.18055e-015
lhumerus 23.2963 29.9324 86.8746
lradius 64.5745
lwrist 80.4868
lhand -39.8474 -1.28939
lfingers 7.12502
lthumb -12.8207 28.2969
rfemur 9.22761 16.9247 14.1408
rtibia -19.9989
rfoot 4.65871 -5.27542
rtoes 1.11115
lfemur 15.4355 20.2616 -12.2969
ltibia 3.49861e-014
lfoot -18.8019 14.3512
ltoes 5.60155
322
root -0.604898 18.055 5.91014 3.01164 -33.1138 -2.23938
lowerback 2.60066 -7.57913 -3.28386
upperback -3.01751 -10.2078 2.53585
thorax -3.53764 -4.9723 4.91683
lowerneck -9.57432 4.23933 13.3744
upperneck 31.4523 0.767939 4.92627
head 12.2358 2.26939 -0.356732
rclavicle 1.6719e-013 1.11319e-014
rhumerus 38.3793 43.7631 2.23994
rradius 139.405
rwrist -90.6219
rhand -1.5648 -57.4479
rfingers 7.12502
rthumb 24.0908 -85.9556
lclavicle 1.6719e-013 1.11319e-014
lhumerus 23.4392 30.0146 86.9217
lradius 64.6409
lwrist 80.7889
lhand -39.8766 -0.908427
lfingers 7.12502
lthumb -12.8489 28.6761
rfemur 9.04736 17.0311 14.0419
rtibia -20.0393
rfoot 4.70832 -5.37972
rtoes 1.30796
lfemur 15.2695 20.3839 -12.3964
ltibia -4.77083e-015
lfoot -18.7509 14.3778
ltoes 5.64275
323
root -0.599639 18.0596 5.90289 3.11242 -33.1791 -2.13607
lowerback 2.64339 -7.53728 -3.31324
upperback -3.02519 -10.1556 2.49221
thorax -3.57781 -4.94421 4.89438
lowerneck -9.47879 4.26177 13.506
upperneck 31.3154 0.847671 4.79404
head 12.1657 2.29673 -0.421346
rclavicle 6.18842e-014 8.94531e-015
rhumerus 38.5896 43.8924 2.22222
rradius 139.387
rwrist -90.4641
rhand -1.90287 -57.4302
rfingers 7.12502
rthumb 23.7665 -85.9804
lclavicle 6.18842e-014 8.94531e-015
lhumerus 23.4495 29.9176 86.8482
lradius 64.4651
lwrist 80.6575
lhand -40.0112 -1.44249
lfingers 7.12502
lthumb -12.9786 28.1338
rfemur 8.8258 17.1276 13.8792
rtibia -20.0432
rfoot 4.75075 -5.44545
rtoes 1.2132
lfemur 15.0574 20.484 -12.5652
ltibia 7.95139e-015
lfoot -18.6775 14.4072
ltoes 5.67137
324
root -0.594153 18.0641 5.89614 3.19494 -33.2307 -2.01294
lowerback 2.65654 -7.49876 -3.33573
upperback -3.01499 -10.1072 2.42612
thorax -3.58753 -4.91961 4.8392
lowerneck -9.38014 4.27899 13.6376
upperneck 31.1522 0.927357 4.65091
head 12.0844 2.32153 -0.490393
rclavicle -7.56624e-015 -6.75868e-015
rhumerus 38.547 43.8879 2.07272
rradius 139.376
rwrist -90.4739
rhand -1.84592 -57.3633
rfingers 7.12502
rthumb 23.8212 -85.9064
lclavicle -7.56624e-015 -6.75868e-015
lhumerus 23.4179 29.8332 86.7416
lradius 64.8172
lwrist 81.6382
lhand -40.0011 -1.47003
lfingers 7.12502
lthumb -12.9688 28.1069
rfemur 8.59868 17.25 13.6946
rtibia -20.021
rfoot 4.74518 -5.51801
rtoes 1.10652
lfemur 14.8511 20.5689 -12.7512
ltibia -4.77083e-015
lfoot -18.5979 14.4058
ltoes 5.58817
325
root -0.588673 18.0667 5.89172 3.28846 -33.2646 -1.97342
lowerback 2.64664 -7.45385 -3.24652
upperback -2.96756 -10.0437 2.35928
thorax -3.56561 -4.89212 4.71697
lowerneck -9.3818 4.31964 13.8466
upperneck 31.0257 1.02218 4.44694
head 12.0424 2.35899 -0.590064
rclavicle 4.32232e-014 1.31198e-014
rhumerus 38.1562 43.8038 1.83091
rradius 139.46
rwrist -90.5352
rhand -1.53684 -57.2567
rfingers 7.12502
rthumb 24.1176 -85.7608
lclavicle 4.32232e-014 1.31198e-014
lhumerus 23.3921 29.588 86.6196
lradius 64.6375
lwrist 80.8288
lhand -40.0174 -1.92522
lfingers 7.12502
lthumb -12.9845 27.6507
rfemur 8.41372 17.3459 13.5989
rtibia -19.991
rfoot 4.71622 -5.57646
rtoes 0.958179
lfemur 14.6901 20.6334 -12.8477
ltibia -1.11319e-014
lfoot -18.5422 14.3973
ltoes 5.48105
326
root -0.583237 18.0684 5.88874 3.37917 -33.2576 -1.97544
lowerback 2.70433 -7.4942 -3.22284
upperback -2.97383 -10.0959 2.44428
thorax -3.58811 -4.91737 4.80131
lowerneck -9.32416 4.43228 13.7813
upperneck 30.9471 1.265 4.31789
head 12.0052 2.4423 -0.597663
rclavicle 7.96878e-014 1.72943e-014
rhumerus 38.225 43.7222 1.97602
rradius 139.553
rwrist -90.5299
rhand -1.35903 -57.1784
rfingers 7.12502
rthumb 24.288 -85.6598
lclavicle 7.96878e-014 1.72943e-014
lhumerus 23.3028 29.7026 86.6262
lradius 64.6695
lwrist 80.4541
lhand -39.9362 -2.00416
lfingers 7.12502
lthumb -12.9063 27.5767
rfemur 8.26816 17.383 13.5584
rtibia -19.95
rfoot 4.67616 -5.62477
rtoes 0.74757
lfemur 14.5539 20.6557 -12.8981
ltibia 1.59028e-014
lfoot -18.4905 14.4192
ltoes 5.2957
327
root -0.577755 18.0707 5.88598 3.43868 -33.2193 -1.92848
lowerback 2.87479 -7.68825 -3.44233
upperback -3.12188 -10.364 2.78576
thorax -3.7113 -5.03661 5.31065
lowerneck -8.982 4.63056 13.2151
upperneck 30.9089 1.77809 4.21972
head 11.9175 2.59163 -0.482574
rclavicle -4.09993e-015 -7.55382e-015
rhumerus 39.5732 43.6978 2.86768
rradius 139.554
rwrist -90.5678
rhand -1.52192 -57.2168
rfingers 7.12502
rthumb 24.1319 -85.719
lclavicle -4.09993e-015 -7.55382e-015
lhumerus 23.0008 30.4955 86.7577
lradius 64.9454
lwrist 80.7352
lhand -39.9873 -1.81791
lfingers 7.12502
lthumb -12.9555 27.7599
rfemur 8.13561 17.4475 13.4669
rtibia -19.8928
rfoot 4.58021 -5.72985
rtoes 0.793547
lfemur 14.4177 20.6452 -12.9932
ltibia 0
lfoot -18.4523 14.4544
ltoes 5.15612
